<svg xmlns="http://www.w3.org/2000/svg" width="17.505" height="23.727" viewBox="0 0 17.505 23.727">
  <g id="_22" data-name="22" transform="translate(-474 -179.571)">
    <g id="Nopath_22" data-name="Nopath 22" transform="translate(475 180.5)">
      <path id="Path_18874" data-name="Path 18874" d="M22.15,6.5c-.426,2.112-.841,4.23-1.294,6.336a.323.323,0,0,1-.132.207l-4.4,3.51-1.746,1.4a.337.337,0,0,1-.466,0,3.57,3.57,0,0,1-1.074-2.368,3.209,3.209,0,0,1,.232-1.2h0a4.632,4.632,0,0,1,3.39-2.587.375.375,0,0,0,.285-.3,3.3,3.3,0,0,0-6.468-1.1h0v4.322" transform="translate(-6.624 -2.618)" fill="none" stroke="#000" stroke-miterlimit="10" stroke-width="2"/>
      <path id="Path_18875" data-name="Path 18875" d="M9.208,17.8a1.463,1.463,0,0,1-.414-.065A2.187,2.187,0,0,1,7.5,16.438V10.15L10.308,6l6.249-2.5" transform="translate(-7.5 -3.5)" fill="none" stroke="#000" stroke-miterlimit="10" stroke-width="2"/>
      <path id="Path_18876" data-name="Path 18876" d="M14.464,12.6h0a4.27,4.27,0,0,0-.982-.1,4.9,4.9,0,0,0-2.134.484,4.982,4.982,0,0,0-1.152.783,4.4,4.4,0,0,0-1.11,1.423l-.132.264A4.768,4.768,0,0,0,8.5,17.481a4.981,4.981,0,1,0,9.25-2.462" transform="translate(-7.207 -0.855)" fill="none" stroke="#000" stroke-miterlimit="10" stroke-width="2"/>
    </g>
  </g>
</svg>
