<svg xmlns="http://www.w3.org/2000/svg" width="17.229" height="15.83" viewBox="0 0 17.229 15.83">
  <g id="_23" data-name="23" transform="translate(-508.732 -181.263)">
    <g id="path_23" data-name="path 23" transform="translate(508.512 206.409)">
      <path id="Path_18877" data-name="Path 18877" d="M417,370.1l3.8-3.036.637-.461a1.6,1.6,0,0,1,.953-.316l5.525-.055a1.743,1.743,0,0,1-.206,1.421,1.646,1.646,0,0,1-.832.607l-2.52.061a.886.886,0,0,0-.3.607.911.911,0,0,0,.328.741l3.612-.055,4.183-4.3a1.154,1.154,0,0,1,1.39.206,1.166,1.166,0,0,1,.182,1.39l-4.718,4.833-7.055.182-1.658,1.639Z" transform="translate(-416.63 -383.03)" stroke="#000" stroke-linecap="round" stroke-linejoin="round" stroke-width="0.3"/>
      <path id="Path_18878" data-name="Path 18878" d="M1074,345" transform="translate(-1056.63 -364.82)" stroke="#000" stroke-linecap="round" stroke-linejoin="round" stroke-width="18"/>
    </g>
    <g id="Path_18879" data-name="Path 18879" transform="translate(515.882 181.283)">
      <path id="Path_18904" data-name="Path 18904" d="M4,7.273A9.743,9.743,0,0,1,.259,3.394,2.3,2.3,0,0,1,4,.763,2.3,2.3,0,0,1,7.741,3.394,9.743,9.743,0,0,1,4,7.273Z" fill="none"/>
      <path id="Path_18905" data-name="Path 18905" d="M4,5.679A7.351,7.351,0,0,0,6.542,2.892a1.264,1.264,0,0,0,.026-1.155,1.086,1.086,0,0,0-.9-.438A.841.841,0,0,0,5,1.59L4,2.808,3,1.59a.841.841,0,0,0-.669-.29,1.086,1.086,0,0,0-.9.438,1.264,1.264,0,0,0,.025,1.155A7.351,7.351,0,0,0,4,5.679M4,7.273A9.743,9.743,0,0,1,.259,3.394,2.3,2.3,0,0,1,4,.763,2.3,2.3,0,0,1,7.741,3.394,9.743,9.743,0,0,1,4,7.273Z"/>
    </g>
  </g>
</svg>
