<svg xmlns="http://www.w3.org/2000/svg" width="20.007" height="17.64" viewBox="0 0 20.007 17.64">
  <g id="_33" data-name="33" transform="translate(0 -17.574)">
    <g id="Group_8539" data-name="Group 8539" transform="translate(0 17.574)">
      <path id="Path_18886" data-name="Path 18886" d="M19.506,21.727l-9.147-4.079a.854.854,0,0,0-.7,0L.514,21.727a.857.857,0,0,0-.055,1.538l9.147,4.878a.858.858,0,0,0,.807,0l9.147-4.878a.857.857,0,0,0-.055-1.538Zm-9.5,4.69-7.2-3.839,7.2-3.21,7.2,3.21Z" transform="translate(-0.006 -17.573)"/>
      <path id="Path_18887" data-name="Path 18887" d="M18.748,132,10,136.665,1.26,132a.857.857,0,0,0-.807,1.511l9.147,4.88a.858.858,0,0,0,.807,0l9.147-4.879A.857.857,0,0,0,18.748,132Z" transform="translate(0 -124.197)"/>
      <path id="Path_18888" data-name="Path 18888" d="M18.748,181.661,10,186.325l-8.74-4.664a.857.857,0,0,0-.807,1.511L9.6,188.051a.858.858,0,0,0,.807,0l9.147-4.879a.857.857,0,0,0-.807-1.511Z" transform="translate(0 -170.512)"/>
    </g>
  </g>
</svg>
