<svg xmlns="http://www.w3.org/2000/svg" width="26.287" height="24.212" viewBox="0 0 26.287 24.212">
  <g id="_34" data-name="34" transform="translate(-20.25 -20.25)">
    <path id="Path_18889" data-name="Path 18889" d="M23.339,21.5H35.987a1.584,1.584,0,0,1,1.584,1.584V43.212H21.5V23.339A1.839,1.839,0,0,1,23.339,21.5Z" fill="none" stroke="#000" stroke-miterlimit="10" stroke-width="2.5"/>
    <path id="Path_18890" data-name="Path 18890" d="M854.5,311.411h7.716V297.084a1.588,1.588,0,0,0-1.584-1.584H854.5" transform="translate(-816.929 -268.253)" fill="none" stroke="#000" stroke-miterlimit="10" stroke-width="2.5"/>
    <rect id="Rectangle_4265" data-name="Rectangle 4265" width="2.115" height="2.115" transform="translate(25.921 25.921)" stroke="#000" stroke-miterlimit="10" stroke-width="1"/>
    <rect id="Rectangle_4266" data-name="Rectangle 4266" width="2.115" height="2.115" transform="translate(31.112 25.921)" stroke="#000" stroke-miterlimit="10" stroke-width="1"/>
    <rect id="Rectangle_4267" data-name="Rectangle 4267" width="2.115" height="2.115" transform="translate(25.921 31.304)" stroke="#000" stroke-miterlimit="10" stroke-width="1"/>
    <rect id="Rectangle_4268" data-name="Rectangle 4268" width="2.115" height="2.115" transform="translate(31.094 31.304)" stroke="#000" stroke-miterlimit="10" stroke-width="1"/>
    <rect id="Rectangle_4269" data-name="Rectangle 4269" width="2.115" height="2.115" transform="translate(38.893 31.304)" stroke="#000" stroke-miterlimit="10" stroke-width="0.8"/>
    <rect id="Rectangle_4270" data-name="Rectangle 4270" width="2.115" height="2.115" transform="translate(38.893 36.494)" stroke="#000" stroke-miterlimit="10" stroke-width="0.8"/>
    <rect id="Rectangle_4271" data-name="Rectangle 4271" width="2.115" height="2.115" transform="translate(25.921 36.494)" stroke="#000" stroke-miterlimit="10" stroke-width="1"/>
    <rect id="Rectangle_4272" data-name="Rectangle 4272" width="2.115" height="2.115" transform="translate(31.093 36.494)" stroke="#000" stroke-miterlimit="10" stroke-width="1"/>
  </g>
</svg>
