<svg xmlns="http://www.w3.org/2000/svg" width="21.37" height="24.638" viewBox="0 0 21.37 24.638">
  <path id="_37" data-name="37" d="M10.946,14.065a.312.312,0,0,1-.358.012,12.548,12.548,0,0,1-3.1-2.769A9.863,9.863,0,0,1,5.4,6.8a5.961,5.961,0,0,1,.758-4.215,5.192,5.192,0,0,1,1.15-1.279A5.621,5.621,0,0,1,10.838,0,5,5,0,0,1,14.2,1.369a5,5,0,0,1,.9,1.092,6.677,6.677,0,0,1,.637,4.831,10.633,10.633,0,0,1-4.783,6.773Zm-3.654.142v5.35l5.8,2.5v-6.89a12.533,12.533,0,0,0,1.24-1.083V22l4.808-2.421V8.813l-1.848.712a11.849,11.849,0,0,0,.458-1.5l1.788-.69a.619.619,0,0,1,.79.36.612.612,0,0,1,.042.223V19.973a.621.621,0,0,1-.385.577l-6,3.013a.621.621,0,0,1-.562,0L6.692,20.646.9,23.563a.619.619,0,0,1-.833-.273A.631.631,0,0,1,0,23.011V10.238a.621.621,0,0,1,.446-.6L3.6,8.427a11.275,11.275,0,0,0,.415,1.167L1.242,10.661V22.008L6.05,19.586V12.9a14.669,14.669,0,0,0,1.242,1.308ZM10.606,2.733A2.638,2.638,0,1,1,7.967,5.371a2.638,2.638,0,0,1,2.639-2.638Z" transform="translate(0.5 0.5)" stroke="#000" stroke-width="1" fill-rule="evenodd"/>
</svg>
