<svg xmlns="http://www.w3.org/2000/svg" width="21.192" height="20.011" viewBox="0 0 21.192 20.011">
  <g id="_38" data-name="38" transform="translate(-17.448 -30.781)">
    <path id="Path_18893" data-name="Path 18893" d="M559.359,441.327c-.017-3.791,4.36-6.88,9.789-6.907" transform="translate(-539.5 -390.539)" fill="none" stroke="#000" stroke-miterlimit="10" stroke-width="2"/>
    <line id="Line_87" data-name="Line 87" x1="0.34" y2="8.025" transform="translate(22.103 38.39)" fill="none" stroke="#000" stroke-miterlimit="10" stroke-width="2"/>
    <path id="Path_18894" data-name="Path 18894" d="M533.518,207.091a8.606,8.606,0,0,1-1.994-3.939c-.745-3.753,1.31-7.887,5.156-10.651l2.286,5.156" transform="translate(-512.88 -160.19)" fill="none" stroke="#000" stroke-miterlimit="10" stroke-width="2"/>
    <path id="Path_18895" data-name="Path 18895" d="M594.1,346.995a8.568,8.568,0,0,1,4.329-4.572A9.106,9.106,0,0,1,608.5,345a10.549,10.549,0,0,1-2.723,3.7,10.9,10.9,0,0,1-5.588,2.484,12.824,12.824,0,0,1-7.684-1.216" transform="translate(-571.029 -302.43)" fill="none" stroke="#000" stroke-miterlimit="10" stroke-width="2"/>
  </g>
</svg>
