<svg xmlns="http://www.w3.org/2000/svg" width="21.774" height="13.286" viewBox="0 0 21.774 13.286">
  <g id="_39" data-name="39" transform="translate(-0.22 19.82)">
    <path id="Path_18877" data-name="Path 18877" d="M417,371.423l4.813-3.85.809-.585a2.033,2.033,0,0,1,1.209-.4l7.008-.069a2.21,2.21,0,0,1-.262,1.8,2.088,2.088,0,0,1-1.055.77l-3.2.077a1.124,1.124,0,0,0-.377.77,1.155,1.155,0,0,0,.416.939l4.582-.069,5.306-5.452a1.463,1.463,0,0,1,1.764.262,1.479,1.479,0,0,1,.231,1.764l-5.984,6.13-8.948.231-2.1,2.079Z" transform="translate(-416.63 -382.504)" stroke="#000" stroke-linecap="round" stroke-linejoin="round" stroke-width="0.3"/>
    <path id="Path_18878" data-name="Path 18878" d="M1074,345" transform="translate(-1052.068 -364.82)" stroke="#000" stroke-linecap="round" stroke-linejoin="round" stroke-width="18"/>
  </g>
</svg>
