<svg xmlns="http://www.w3.org/2000/svg" width="16" height="16" viewBox="0 0 16 16">
  <g id="Group_253" data-name="Group 253" transform="translate(-505 -33)">
    <g id="Ellipse_7" data-name="Ellipse 7" transform="translate(505 33)" fill="none" stroke="#000" stroke-width="2">
      <circle cx="8" cy="8" r="8" stroke="none"/>
      <circle cx="8" cy="8" r="7" fill="none"/>
    </g>
    <g id="Polygon_1" data-name="Polygon 1" transform="translate(517.583 37.5) rotate(90)">
      <path id="Path_18906" data-name="Path 18906" d="M5.321,5.963H1.679a.5.5,0,0,1-.44-.738L3.06,1.862a.5.5,0,0,1,.879,0L5.761,5.225a.5.5,0,0,1-.44.738Z"/>
      <path id="Path_18907" data-name="Path 18907" d="M3.5,2.1,1.679,5.463H5.321L3.5,2.1m0-1a.99.99,0,0,1,.879.524L6.2,4.987a1,1,0,0,1-.879,1.476H1.679A1,1,0,0,1,.8,4.987L2.621,1.624A.99.99,0,0,1,3.5,1.1Z"/>
    </g>
  </g>
</svg>
