<svg xmlns="http://www.w3.org/2000/svg" width="18.5" height="14.5" viewBox="0 0 18.5 14.5">
  <g id="Group_8490" data-name="Group 8490" transform="translate(-706 -137.5)">
    <g id="Group_8488" data-name="Group 8488">
      <path id="Path_18824" data-name="Path 18824" d="M6,0h5" transform="translate(709 141)" fill="none" stroke="#000" stroke-width="2"/>
      <path id="Path_18825" data-name="Path 18825" d="M3,0H5.286" transform="translate(707.714 141)" fill="none" stroke="#000" stroke-width="2"/>
      <path id="Path_18826" data-name="Path 18826" d="M3,0H5.286" transform="translate(703 141)" fill="none" stroke="#000" stroke-width="2"/>
      <g id="Polygon_22" data-name="Polygon 22" transform="translate(724.5 137.5) rotate(90)">
        <path id="Path_18990" data-name="Path 18990" d="M5.259,5H1.741L3.5,1.985Z"/>
        <path id="Path_18991" data-name="Path 18991" d="M3.5,0,7,6H0Z"/>
      </g>
    </g>
    <g id="Group_8489" data-name="Group 8489" transform="translate(706 145)">
      <path id="Path_18827" data-name="Path 18827" d="M11,0H6" transform="translate(-1.5 3.5)" fill="none" stroke="#000" stroke-width="2"/>
      <path id="Path_18828" data-name="Path 18828" d="M5.286,0H3" transform="translate(8.5 3.5)" fill="none" stroke="#000" stroke-width="2"/>
      <path id="Path_18829" data-name="Path 18829" d="M5.286,0H3" transform="translate(13.214 3.5)" fill="none" stroke="#000" stroke-width="2"/>
      <g id="Polygon_23" data-name="Polygon 23" transform="translate(0 7) rotate(-90)">
        <path id="Path_18992" data-name="Path 18992" d="M5.259,5H1.741L3.5,1.985Z"/>
        <path id="Path_18993" data-name="Path 18993" d="M3.5,0,7,6H0Z"/>
      </g>
    </g>
  </g>
</svg>
