<svg xmlns="http://www.w3.org/2000/svg" width="17" height="18.532" viewBox="0 0 17 18.532">
  <g id="Group_8459" data-name="Group 8459" transform="translate(-884 -76)">
    <g id="Union_8" data-name="Union 8" transform="translate(869.473 48)">
      <path id="Path_18952" data-name="Path 18952" d="M17.372,41a3,3,0,0,1-2.845-3V31a3,3,0,0,1,3-3h11a3,3,0,0,1,3,3v7a3,3,0,0,1-3,3H22.913l-6.264,5.531Z" fill="none"/>
      <path id="Path_18953" data-name="Path 18953" d="M19.323,41.5,22.156,39h6.37a1,1,0,0,0,1-1V31a1,1,0,0,0-1-1h-11a1,1,0,0,0-1,1v7a1,1,0,0,0,.947,1l2.163.109L19.323,41.5m-2.674,5.03L17.372,41a3,3,0,0,1-2.845-3V31a3,3,0,0,1,3-3h11a3,3,0,0,1,3,3v7a3,3,0,0,1-3,3H22.913Z"/>
    </g>
    <line id="Line_29" data-name="Line 29" x2="8" transform="translate(888.5 81)" fill="none" stroke="#000" stroke-width="2"/>
    <line id="Line_30" data-name="Line 30" x2="8" transform="translate(888.5 84)" fill="none" stroke="#000" stroke-width="2"/>
  </g>
</svg>
