<svg xmlns="http://www.w3.org/2000/svg" width="25.436" height="32.091" viewBox="0 0 25.436 32.091">
  <g id="Group_8529" data-name="Group 8529" transform="translate(-324.369 -626.288) rotate(47)">
    <g id="Group_8527" data-name="Group 8527" transform="translate(689.498 180.992)">
      <path id="Path_18855" data-name="Path 18855" d="M15.429,0V7.308a4.872,4.872,0,0,1-4.872,4.872H4.872A4.872,4.872,0,0,1,0,7.308V0" transform="translate(15.429 12.18) rotate(180)" fill="none" stroke="#000" stroke-width="2"/>
      <path id="Path_18856" data-name="Path 18856" d="M5.278,4v6.5c0,1.794-1.182,3.248-2.639,3.248S0,12.29,0,10.5V5.244" transform="translate(10.151 2.629)" fill="none" stroke="#000" stroke-width="2"/>
    </g>
    <g id="Group_8528" data-name="Group 8528" transform="translate(694.404 185.721)">
      <path id="Path_18855-2" data-name="Path 18855" d="M15.429,0V7.308a4.872,4.872,0,0,1-4.872,4.872H4.872A4.872,4.872,0,0,1,0,7.308V0" transform="translate(0.001 4.193)" fill="none" stroke="#000" stroke-width="2"/>
      <path id="Path_18856-2" data-name="Path 18856" d="M0,12.932V7.248C0,5.454,1.182,4,2.639,4S5.278,5.454,5.278,7.248v5.706" transform="translate(0 -4)" fill="none" stroke="#000" stroke-width="2"/>
    </g>
  </g>
</svg>
