<svg xmlns="http://www.w3.org/2000/svg" width="14" height="15" viewBox="0 0 14 15">
  <g id="Group_8503" data-name="Group 8503" transform="translate(-33 -80)">
    <g id="Rectangle_9" data-name="Rectangle 9" transform="translate(33 80)" fill="none" stroke="#000" stroke-width="2">
      <rect width="14" height="15" rx="2" stroke="none"/>
      <rect x="1" y="1" width="12" height="13" rx="1" fill="none"/>
    </g>
    <g id="Polygon_6" data-name="Polygon 6" transform="translate(43.463 84) rotate(90)">
      <path id="Path_19008" data-name="Path 19008" d="M5.321,5.963H1.679a.5.5,0,0,1-.44-.738L3.06,1.862a.5.5,0,0,1,.879,0L5.761,5.225a.5.5,0,0,1-.44.738Z"/>
      <path id="Path_19009" data-name="Path 19009" d="M3.5,2.1,1.679,5.463H5.321L3.5,2.1m0-1a.99.99,0,0,1,.879.524L6.2,4.987a1,1,0,0,1-.879,1.476H1.679A1,1,0,0,1,.8,4.987L2.621,1.624A.99.99,0,0,1,3.5,1.1Z"/>
    </g>
  </g>
</svg>
