<svg xmlns="http://www.w3.org/2000/svg" width="19.483" height="14.518" viewBox="0 0 19.483 14.518">
  <g id="Group_284" data-name="Group 284" transform="translate(-412.517 -81.486)">
    <g id="Group_283" data-name="Group 283" transform="translate(5.937 -3.514)">
      <g id="Union_4" data-name="Union 4" transform="translate(399.186 60)">
        <path id="Path_18918" data-name="Path 18918" d="M21.249,37.192h-.132c-3.181,0-5.758-2.057-5.758-4.6S17.937,28,21.118,28s5.759,2.058,5.759,4.6a4.348,4.348,0,0,1-2.25,3.645l.2,3.273Z" fill="none"/>
        <path id="Path_18919" data-name="Path 18919" d="M23.148,36.637l-.073-1.2.767-.471A2.865,2.865,0,0,0,25.377,32.6a2.7,2.7,0,0,0-1.123-2.078,5.337,5.337,0,0,0-6.272,0,2.485,2.485,0,0,0,0,4.156,5.024,5.024,0,0,0,3.136,1.018h.1l.459-.008,1.467.953m1.678,2.878-3.577-2.322h-.132c-3.181,0-5.758-2.057-5.758-4.6S17.937,28,21.118,28s5.759,2.058,5.759,4.6a4.348,4.348,0,0,1-2.25,3.645Z"/>
      </g>
      <g id="Union_3" data-name="Union 3" transform="translate(390.675 57)">
        <path id="Path_18920" data-name="Path 18920" d="M17.906,36.211a4.361,4.361,0,0,1-2-3.543c0-2.578,2.57-4.668,5.741-4.668s5.742,2.091,5.742,4.668-2.571,4.669-5.742,4.669h-.255l-4.085,3.182Z" fill="none"/>
        <path id="Path_18921" data-name="Path 18921" d="M19.3,37.058l1.6-1.244.545.019a4.976,4.976,0,0,0,3.315-1.028,2.588,2.588,0,0,0,0-4.275,5.215,5.215,0,0,0-6.227,0A2.782,2.782,0,0,0,17.4,32.668a2.891,2.891,0,0,0,1.361,2.313l.753.526L19.3,37.058m-2,3.456.6-4.3a4.361,4.361,0,0,1-2-3.543c0-2.578,2.57-4.668,5.741-4.668s5.742,2.091,5.742,4.668-2.571,4.669-5.742,4.669q-.128,0-.255,0Z"/>
      </g>
    </g>
  </g>
</svg>
