<svg xmlns="http://www.w3.org/2000/svg" width="16.25" height="16.5" viewBox="0 0 16.25 16.5">
  <g id="Group_300" data-name="Group 300" transform="translate(-730.5 -77)">
    <g id="Rectangle_17" data-name="Rectangle 17" transform="translate(742.5 80)">
      <path id="Path_18944" data-name="Path 18944" d="M0,0H3A1,1,0,0,1,4,1V4A1,1,0,0,1,3,5H0Z" fill="none"/>
      <path id="Path_18945" data-name="Path 18945" d="M1.5.75H3A.25.25,0,0,1,3.25,1V4A.25.25,0,0,1,3,4.25H1.5A.75.75,0,0,1,.75,3.5v-2A.75.75,0,0,1,1.5.75Z" fill="none" stroke="#000" stroke-width="2"/>
    </g>
    <g id="Rectangle_16" data-name="Rectangle 16" transform="translate(732 80)">
      <path id="Path_18946" data-name="Path 18946" d="M0,0H12V8a2,2,0,0,1-2,2H2A2,2,0,0,1,0,8Z" fill="none"/>
      <path id="Path_18947" data-name="Path 18947" d="M1.5.75h9a.75.75,0,0,1,.75.75V8A1.25,1.25,0,0,1,10,9.25H2A1.25,1.25,0,0,1,.75,8V1.5A.75.75,0,0,1,1.5.75Z" fill="none" stroke="#000" stroke-width="2"/>
    </g>
    <line id="Line_26" data-name="Line 26" x2="16" transform="translate(730.5 92.5)" fill="none" stroke="#000" stroke-width="2"/>
    <line id="Line_27" data-name="Line 27" y2="2" transform="translate(736 77)" fill="none" stroke="#0f0000" stroke-width="2"/>
    <line id="Line_28" data-name="Line 28" y2="1" transform="translate(738.5 78)" fill="none" stroke="#0f0000" stroke-width="2"/>
  </g>
</svg>
