<svg xmlns="http://www.w3.org/2000/svg" width="15.186" height="16" viewBox="0 0 15.186 16">
  <g id="Group_8460" data-name="Group 8460" transform="translate(-965.407 -79)">
    <g id="Union_9" data-name="Union 9" transform="translate(936.407 29)">
      <path id="Path_18954" data-name="Path 18954" d="M34.592,66V63.658A5.978,5.978,0,0,1,33.279,63l-1.871,1.41L29,61.217l1.87-1.409a6.03,6.03,0,0,1,.067-3.815l-1.82-1.474,2.517-3.109,1.821,1.475a5.975,5.975,0,0,1,1.137-.543V50h4v2.341A5.976,5.976,0,0,1,39.907,53l1.871-1.41,2.408,3.195-1.87,1.409a6.031,6.031,0,0,1-.067,3.814l1.82,1.474-2.517,3.109-1.82-1.474a5.972,5.972,0,0,1-1.138.544V66Z" fill="none"/>
      <path id="Path_18955" data-name="Path 18955" d="M37.093,64.5V62.6l1-.353a4.481,4.481,0,0,0,.852-.407l.9-.556,1.48,1.2.629-.777L40.48,60.5l.355-1a4.531,4.531,0,0,0,.05-2.861l-.319-1.011,1.519-1.145-.6-.8-1.521,1.146-.885-.587a4.48,4.48,0,0,0-.984-.492l-1-.353V51.5h-1v1.9l-1,.354a4.484,4.484,0,0,0-.852.407l-.9.556-1.48-1.2-.629.777,1.479,1.2-.355,1a4.53,4.53,0,0,0-.05,2.862l.319,1.011L31.1,61.512l.6.8,1.521-1.146.884.587a4.483,4.483,0,0,0,.984.492l1,.354v1.9h1m1.5,1.5h-4V63.658A5.978,5.978,0,0,1,33.279,63l-1.871,1.41L29,61.217l1.87-1.409a6.03,6.03,0,0,1,.067-3.815l-1.82-1.474,2.517-3.109,1.821,1.475a5.975,5.975,0,0,1,1.137-.543V50h4v2.341A5.975,5.975,0,0,1,39.907,53l1.871-1.41,2.408,3.195-1.87,1.409a6.031,6.031,0,0,1-.067,3.814l1.82,1.474-2.517,3.109-1.82-1.474a5.972,5.972,0,0,1-1.138.544Z"/>
    </g>
    <g id="Ellipse_32" data-name="Ellipse 32" transform="translate(970 84)" fill="none" stroke="#000" stroke-width="2">
      <circle cx="3" cy="3" r="3" stroke="none"/>
      <circle cx="3" cy="3" r="2" fill="none"/>
    </g>
  </g>
</svg>
