<svg xmlns="http://www.w3.org/2000/svg" width="14.828" height="14.828" viewBox="0 0 14.828 14.828">
  <g id="Group_291" data-name="Group 291" transform="translate(-487.086 -81.086)">
    <g id="Group_289" data-name="Group 289">
      <g id="Polygon_8" data-name="Polygon 8" transform="translate(491.773 86.324) rotate(45)">
        <path id="Path_18926" data-name="Path 18926" d="M4.876,3.348h-2.8L3.478,1.6Z"/>
        <path id="Path_18927" data-name="Path 18927" d="M3.478.3a.5.5,0,0,1,.39.188L6.307,3.536a.5.5,0,0,1-.39.812H1.04a.5.5,0,0,1-.39-.812L3.088.488A.5.5,0,0,1,3.478.3Z"/>
      </g>
      <line id="Line_12" data-name="Line 12" x1="3" y2="3" transform="translate(488.5 91.5)" fill="none" stroke="#000" stroke-linecap="round" stroke-width="2"/>
    </g>
    <g id="Group_290" data-name="Group 290">
      <g id="Polygon_8-2" data-name="Polygon 8" transform="translate(497.096 90.649) rotate(-135)">
        <path id="Path_18928" data-name="Path 18928" d="M4.876,3.348h-2.8L3.478,1.6Z"/>
        <path id="Path_18929" data-name="Path 18929" d="M3.478.3a.5.5,0,0,1,.39.188L6.307,3.536a.5.5,0,0,1-.39.812H1.04a.5.5,0,0,1-.39-.812L3.088.488A.5.5,0,0,1,3.478.3Z"/>
      </g>
      <line id="Line_12-2" data-name="Line 12" y1="3" x2="3" transform="translate(497.5 82.5)" fill="none" stroke="#000" stroke-linecap="round" stroke-width="2"/>
    </g>
  </g>
</svg>
