<svg xmlns="http://www.w3.org/2000/svg" width="21.799" height="18.97" viewBox="0 0 21.799 18.97">
  <g id="Group_8534" data-name="Group 8534" transform="translate(-778.201 -183.961)">
    <g id="Group_8532" data-name="Group 8532" transform="translate(-19.4 -2.345)">
      <g id="Path_18859" data-name="Path 18859" transform="translate(800.4 191.246)">
        <path id="Path_19042" data-name="Path 19042" d="M-.4-2.009l5.584-2.3a11.449,11.449,0,0,1,2.3-.559,8.9,8.9,0,0,1,3.607.281l3.3,1.6L19-4.312V10.425H7.487L11.344,4.9,8.062,1.848a17.675,17.675,0,0,1-4.03.748,3.47,3.47,0,0,1-2.36-.748A5.835,5.835,0,0,1,.579.293C.075-.714-.4-2.009-.4-2.009Z" fill="none"/>
        <path id="Path_19043" data-name="Path 19043" d="M8.533-2.9c-.295,0-.61.009-.937.027a9.138,9.138,0,0,0-1.7.433L2.212-.923c.051.11.1.218.155.322a4.282,4.282,0,0,0,.65.965A1.913,1.913,0,0,0,4.033.6a15.187,15.187,0,0,0,3.442-.66l1.1-.34,5.4,5.021L11.321,8.425H17V-1.656l-2.789.8-3.88-1.883a7.383,7.383,0,0,0-1.8-.164m0-2a7.122,7.122,0,0,1,2.561.311l3.3,1.6L19-4.312V10.425H7.487L11.344,4.9,8.062,1.848a17.676,17.676,0,0,1-4.03.748,3.47,3.47,0,0,1-2.36-.748A5.835,5.835,0,0,1,.579.293C.075-.714-.4-2.009-.4-2.009l5.584-2.3a11.449,11.449,0,0,1,2.3-.559C7.87-4.892,8.218-4.9,8.533-4.9Z"/>
      </g>
      <g id="Group_8531" data-name="Group 8531" transform="translate(797.986 188.534) rotate(-4.992)">
        <path id="Path_18864" data-name="Path 18864" d="M0,0V8" transform="translate(0.723 1.664)" fill="none" stroke="#000" stroke-width="2"/>
        <path id="Path_18863" data-name="Path 18863" d="M8.045,0,0,2.564" fill="none" stroke="#000" stroke-width="2"/>
        <path id="Path_18862" data-name="Path 18862" d="M10.266,5.2c-.145.929.417,4.987-.465,4.987L.89,10.153C.008,10.153,0,8.9,0,7.293V0" transform="matrix(0.695, -0.719, 0.719, 0.695, 0.4, 8.992)" fill="none" stroke="#000" stroke-width="2"/>
      </g>
    </g>
  </g>
</svg>
