<svg xmlns="http://www.w3.org/2000/svg" width="20.491" height="18.247" viewBox="0 0 20.491 18.247">
  <g id="Group_286" data-name="Group 286" transform="translate(-243.106 -78.316)">
    <g id="Group_276" data-name="Group 276">
      <path id="Path_1093" data-name="Path 1093" d="M242.5,47.75,236.917,60l13-3.75,1-5.083L247.75,47.75Z" transform="translate(8 35)" fill="none" stroke="#000" stroke-width="2"/>
      <path id="Path_1094" data-name="Path 1094" d="M239.167,59.737l6.848-5.237" transform="translate(5.986 34.917)" fill="none" stroke="#000" stroke-width="2"/>
      <g id="Rectangle_10" data-name="Rectangle 10" transform="translate(259.229 78.669) rotate(48)">
        <path id="Path_18922" data-name="Path 18922" d="M1,0H5A1,1,0,0,1,6,1V5H0V1A1,1,0,0,1,1,0Z" fill="none"/>
        <path id="Path_18923" data-name="Path 18923" d="M1,.75H5A.25.25,0,0,1,5.25,1V3.5a.75.75,0,0,1-.75.75h-3A.75.75,0,0,1,.75,3.5V1A.25.25,0,0,1,1,.75Z" fill="none" stroke="#000" stroke-width="2"/>
      </g>
      <circle id="Ellipse_18" data-name="Ellipse 18" cx="1.5" cy="1.5" r="1.5" transform="translate(251.2 87.3)"/>
    </g>
  </g>
</svg>
