<svg xmlns="http://www.w3.org/2000/svg" width="14.289" height="16.016" viewBox="0 0 14.289 16.016">
  <g id="Group_275" data-name="Group 275" transform="translate(-136.486 -79.5)">
    <g id="Union_1" data-name="Union 1" transform="translate(124.63 51.508)">
      <path id="Path_18914" data-name="Path 18914" d="M18.568,43.259,16.666,40h-3.8a.5.5,0,0,1-.432-.751L14.334,36l-1.9-3.248A.5.5,0,0,1,12.871,32h3.8l1.9-3.26a.5.5,0,0,1,.864,0l1.9,3.26h3.8a.5.5,0,0,1,.432.751L23.667,36l1.9,3.248A.5.5,0,0,1,25.13,40h-3.8l-1.9,3.26a.5.5,0,0,1-.864,0Z" fill="none" stroke="#000" stroke-width="1"/>
      <path id="Path_18915" data-name="Path 18915" d="M19,41.023l1.038-1.779a1.5,1.5,0,0,1,1.3-.744h2.055l-1.017-1.744a1.5,1.5,0,0,1,0-1.512L23.389,33.5H21.334a1.5,1.5,0,0,1-1.3-.744L19,30.977l-1.038,1.779a1.5,1.5,0,0,1-1.3.744H14.612l1.017,1.744a1.5,1.5,0,0,1,0,1.512L14.612,38.5h2.054a1.5,1.5,0,0,1,1.3.744L19,41.023m0,2.485a.5.5,0,0,1-.432-.248L16.666,40h-3.8a.5.5,0,0,1-.432-.751L14.334,36l-1.895-3.248A.5.5,0,0,1,12.871,32h3.8l1.9-3.26a.5.5,0,0,1,.864,0l1.9,3.26h3.8a.5.5,0,0,1,.432.751L23.667,36l1.895,3.248A.5.5,0,0,1,25.13,40h-3.8l-1.9,3.26A.5.5,0,0,1,19,43.508Z" stroke="#000" stroke-width="1"/>
    </g>
  </g>
</svg>
