<svg xmlns="http://www.w3.org/2000/svg" width="11.769" height="15.933" viewBox="0 0 11.769 15.933">
  <g id="Group_8458" data-name="Group 8458" transform="translate(-949.038 -72.817)">
    <g id="Group_8452" data-name="Group 8452" transform="translate(949.852 73.567)">
      <g id="Group_8451" data-name="Group 8451">
        <path id="Path_18781" data-name="Path 18781" d="M81.074,0a5.075,5.075,0,0,0-4.317,7.742l4.028,6.491a.423.423,0,0,0,.359.2h0a.423.423,0,0,0,.359-.206l3.925-6.554A5.075,5.075,0,0,0,81.074,0Zm3.633,7.24L81.138,13.2,77.476,7.3a4.231,4.231,0,1,1,7.231-.057Z" transform="translate(-76)" stroke="#000" stroke-width="1.5"/>
      </g>
    </g>
    <g id="Group_8454" data-name="Group 8454" transform="translate(952.389 76.104)">
      <g id="Group_8453" data-name="Group 8453">
        <path id="Path_18782" data-name="Path 18782" d="M168.537,90a2.537,2.537,0,1,0,2.537,2.537A2.537,2.537,0,0,0,168.537,90Zm0,4.234a1.7,1.7,0,1,1,1.694-1.7,1.7,1.7,0,0,1-1.694,1.7Z" transform="translate(-166 -90)" stroke="#000" stroke-width="1"/>
      </g>
    </g>
  </g>
</svg>
