<svg xmlns="http://www.w3.org/2000/svg" width="29.171" height="21.284" viewBox="0 0 29.171 21.284">
  <g id="Group_8526" data-name="Group 8526" transform="translate(-638.983 -177.716)">
    <g id="Subtraction_2" data-name="Subtraction 2" transform="translate(638.996 184.096)">
      <path id="Path_19038" data-name="Path 19038" d="M4.6,9.484H0V4.806A6.854,6.854,0,0,1,.356,2.159,3.962,3.962,0,0,1,4.052,0,1.4,1.4,0,0,1,4.234,0H23.809a15.413,15.413,0,0,1,3.879.7,2.779,2.779,0,0,1,1.47,2.154V9.482H23.84a3.017,3.017,0,0,0-5.451,0H10.054a3.018,3.018,0,0,0-5.452,0Z" fill="none"/>
      <path id="Path_19039" data-name="Path 19039" d="M3.546,7.484a5.011,5.011,0,0,1,7.563,0h6.224a5.011,5.011,0,0,1,7.563,0h2.262V3.022a.838.838,0,0,0-.251-.476,12.961,12.961,0,0,0-3.155-.541H4.165L4.1,2H4.052a2.951,2.951,0,0,0-1.017.188,1.437,1.437,0,0,0-.851.785A5.883,5.883,0,0,0,2,4.8v.009c0,.975,0,1.9,0,2.671H3.546m1.056,2H0s0-.045,0-.12V9.233C0,8.635,0,6.813,0,4.806A6.854,6.854,0,0,1,.356,2.159,3.962,3.962,0,0,1,4.052,0c.1,0,.159,0,.182.005H23.809a15.413,15.413,0,0,1,3.879.7,2.779,2.779,0,0,1,1.47,2.154V9.482H23.84a3.017,3.017,0,0,0-5.451,0H10.054a3.018,3.018,0,0,0-5.452,0Z"/>
    </g>
    <path id="Path_18854" data-name="Path 18854" d="M779,139.495l1.9-4.1a3.128,3.128,0,0,1,.958-1.213,3.265,3.265,0,0,1,1.506-.431h8.361a4.422,4.422,0,0,1,1.335.431,3.826,3.826,0,0,1,1.015.877l3.024,4.436Z" transform="translate(-135.692 44.965)" fill="none" stroke="#000" stroke-width="2"/>
    <line id="Line_75" data-name="Line 75" y2="6.032" transform="translate(651.494 178.5)" fill="none" stroke="#000" stroke-width="2"/>
    <g id="Ellipse_54" data-name="Ellipse 54" transform="translate(643 193)" fill="none" stroke="#000" stroke-width="2">
      <circle cx="3" cy="3" r="3" stroke="none"/>
      <circle cx="3" cy="3" r="2" fill="none"/>
    </g>
    <g id="Ellipse_56" data-name="Ellipse 56" transform="translate(657 193)" fill="none" stroke="#000" stroke-width="2">
      <circle cx="3" cy="3" r="3" stroke="none"/>
      <circle cx="3" cy="3" r="2" fill="none"/>
    </g>
  </g>
</svg>
