<svg xmlns="http://www.w3.org/2000/svg" width="18.92" height="26.401" viewBox="0 0 18.92 26.401">
  <g id="Group_8524" data-name="Group 8524" transform="translate(-597.08 -168)">
    <g id="Path_18851" data-name="Path 18851" transform="translate(597.082 174.4)">
      <path id="Path_19034" data-name="Path 19034" d="M9.429-6.4s-1.473,1.827.884,6.07c.408.734,1.031,1.768,1.031,1.768l1.031-3.045s6.482,9.313,6.482,12.179c.442,3.241-1.6,6.032-4.338,7.937A9.1,9.1,0,0,1,9.429,20,9.461,9.461,0,0,1,0,10.571C-.153,5.06,9.429-6.4,9.429-6.4Z" fill="none"/>
      <path id="Path_19035" data-name="Path 19035" d="M7.78-.971C7.3-.3,6.8.413,6.3,1.159,2.348,7.076,1.976,9.674,2,10.516a7.829,7.829,0,0,0,2.234,5.347A7.274,7.274,0,0,0,9.429,18a7.13,7.13,0,0,0,3.938-1.126l.011-.008a9.558,9.558,0,0,0,2.785-2.848,4.84,4.84,0,0,0,.713-3.178l-.018-.134v-.136c0-.052-.052-1.323-2.959-6.141-.317-.526-.635-1.038-.941-1.522l-1.1,3.251L9.631,2.47C9.605,2.427,8.985,1.4,8.564.641A15.766,15.766,0,0,1,7.78-.971M9.429-6.4s-1.473,1.827.884,6.07c.408.734,1.031,1.768,1.031,1.768l1.031-3.045s6.482,9.313,6.482,12.179c.442,3.241-1.6,6.032-4.338,7.937A9.1,9.1,0,0,1,9.429,20,9.461,9.461,0,0,1,0,10.571C-.153,5.06,9.429-6.4,9.429-6.4Z"/>
    </g>
    <g id="Path_18852" data-name="Path 18852" transform="translate(602.581 185)">
      <path id="Path_19036" data-name="Path 19036" d="M4.729-3A5.312,5.312,0,0,0,5.468.4c.715,1.313,2.808,3.139,2.808,4.286A4.138,4.138,0,0,1,0,4.685C0,2.4,4.729-3,4.729-3Z" fill="none"/>
      <path id="Path_19037" data-name="Path 19037" d="M3.77,1.459C2.119,3.8,2.007,4.623,2,4.694a2.138,2.138,0,0,0,4.272.135,11.734,11.734,0,0,0-1.11-1.487A14.39,14.39,0,0,1,3.77,1.459M4.729-3A5.312,5.312,0,0,0,5.468.4c.715,1.313,2.808,3.139,2.808,4.286A4.138,4.138,0,0,1,0,4.685C0,2.4,4.729-3,4.729-3Z"/>
    </g>
  </g>
</svg>
