<svg xmlns="http://www.w3.org/2000/svg" width="20" height="16.5" viewBox="0 0 20 16.5">
  <g id="Group_296" data-name="Group 296" transform="translate(-589.5 -77.5)">
    <g id="Union_6" data-name="Union 6" transform="translate(583 54)">
      <path id="Path_18940" data-name="Path 18940" d="M15.5,40a1,1,0,0,1-1-1V36.532a4.5,4.5,0,1,1,4,0V39a1,1,0,0,1-1,1Z" fill="none"/>
      <path id="Path_18941" data-name="Path 18941" d="M17,38.5V35.6l.832-.414a3,3,0,1,0-2.665,0L16,35.6v2.9h1m.5,1.5h-2a1,1,0,0,1-1-1V36.532a4.5,4.5,0,1,1,4,0V39A1,1,0,0,1,17.5,40Z"/>
    </g>
    <line id="Line_13" data-name="Line 13" y1="2" x2="3" transform="translate(605.39 79.686) rotate(-7)" fill="none" stroke="#000" stroke-width="2"/>
    <line id="Line_16" data-name="Line 16" y1="2" x2="3" transform="translate(591.389 90.69) rotate(-7)" fill="none" stroke="#000" stroke-width="2"/>
    <line id="Line_14" data-name="Line 14" x2="3" y2="2" transform="translate(604.633 90.325) rotate(7)" fill="none" stroke="#000" stroke-width="2"/>
    <line id="Line_17" data-name="Line 17" x2="3" y2="2" transform="translate(590.633 79.145) rotate(7)" fill="none" stroke="#000" stroke-width="2"/>
    <line id="Line_18" data-name="Line 18" y2="3" transform="translate(599.5 77.5)" fill="none" stroke="#000" stroke-width="2"/>
    <line id="Line_19" data-name="Line 19" x2="4" transform="translate(605.5 86.5)" fill="none" stroke="#000" stroke-width="2"/>
    <line id="Line_20" data-name="Line 20" x2="4" transform="translate(589.5 86.5)" fill="none" stroke="#000" stroke-width="2"/>
  </g>
</svg>
