<svg xmlns="http://www.w3.org/2000/svg" width="19" height="24.25" viewBox="0 0 19 24.25">
  <g id="Group_8505" data-name="Group 8505" transform="translate(-404 -129.75)">
    <path id="Path_18840" data-name="Path 18840" d="M6,2.5V18.108c0,2.011-1.343,3.642-3,3.642s-3-1.631-3-3.642V3.541" transform="translate(411 152.5) rotate(180)" fill="none" stroke="#000" stroke-width="2"/>
    <path id="Path_18817" data-name="Path 18817" d="M5,3.5V17.9c0,1.988-1.119,3.6-2.5,3.6S0,19.888,0,17.9V3.5" transform="translate(426.5 148) rotate(90)" fill="none" stroke="#000" stroke-width="2"/>
    <g id="Path_18838" data-name="Path 18838" transform="translate(410 133.5)">
      <path id="Path_19010" data-name="Path 19010" d="M0,0H13V15.5H0Z" fill="none"/>
      <path id="Path_19011" data-name="Path 19011" d="M2,2V13.5h9V2H2M0,0H13V15.5H0Z"/>
    </g>
    <line id="Line_35" data-name="Line 35" x2="4" transform="translate(414.5 140)" fill="none" stroke="#000" stroke-width="2"/>
    <line id="Line_36" data-name="Line 36" x2="4" transform="translate(414.5 143)" fill="none" stroke="#000" stroke-width="2"/>
  </g>
</svg>
