<svg xmlns="http://www.w3.org/2000/svg" width="20.008" height="21.5" viewBox="0 0 20.008 21.5">
  <g id="Group_8479" data-name="Group 8479" transform="translate(-332.996 -133.5)">
    <path id="Path_18815" data-name="Path 18815" d="M18,7.5A9.26,9.26,0,0,1,9,17,9.26,9.26,0,0,1,0,7.5" transform="translate(352 151.5) rotate(180)" fill="none" stroke="#000" stroke-width="2"/>
    <g id="Rectangle_4244" data-name="Rectangle 4244" transform="translate(333 148)">
      <path id="Path_18976" data-name="Path 18976" d="M0,0H4A1,1,0,0,1,5,1V6A1,1,0,0,1,4,7H2A2,2,0,0,1,0,5Z"/>
      <path id="Path_18977" data-name="Path 18977" d="M2,1H4V6H2A1,1,0,0,1,1,5V2A1,1,0,0,1,2,1Z" fill="none" stroke="#000" stroke-width="2"/>
    </g>
    <g id="Rectangle_4245" data-name="Rectangle 4245" transform="translate(348 148)">
      <path id="Path_18978" data-name="Path 18978" d="M1,0H5V5A2,2,0,0,1,3,7H1A1,1,0,0,1,0,6V1A1,1,0,0,1,1,0Z"/>
      <path id="Path_18979" data-name="Path 18979" d="M1,1H3A1,1,0,0,1,4,2V5A1,1,0,0,1,3,6H1Z" fill="none" stroke="#000" stroke-width="2"/>
    </g>
    <line id="Line_32" data-name="Line 32" y2="4" transform="translate(334 144)" fill="none" stroke="#000" stroke-width="2"/>
    <line id="Line_33" data-name="Line 33" y2="4" transform="translate(352 144)" fill="none" stroke="#000" stroke-width="2"/>
  </g>
</svg>
