<svg xmlns="http://www.w3.org/2000/svg" width="24" height="17.999" viewBox="0 0 24 17.999">
  <g id="Group_8495" data-name="Group 8495" transform="translate(-606 -134)">
    <g id="Rectangle_4249" data-name="Rectangle 4249" transform="translate(606 134)" fill="none" stroke="#000" stroke-width="2">
      <rect width="20" height="14" rx="3" stroke="none"/>
      <rect x="1" y="1" width="18" height="12" rx="2" fill="none"/>
    </g>
    <g id="Polygon_21" data-name="Polygon 21" transform="translate(619.5 137.5) rotate(90)">
      <path id="Path_19002" data-name="Path 19002" d="M5.079,4H1.921L3.5,1.744h0L5.079,4h0Z" fill="#fff"/>
      <path id="Path_19003" data-name="Path 19003" d="M3.5.744a.993.993,0,0,1,.819.427L5.9,3.427A1,1,0,0,1,5.079,5H1.921A1,1,0,0,1,1.1,3.427L2.681,1.17A.993.993,0,0,1,3.5.744Z"/>
    </g>
    <path id="Path_18823" data-name="Path 18823" d="M18.5-1.188V8.879a.825.825,0,0,1-.841.807H.25" transform="translate(610.5 141.313)" fill="none" stroke="#000" stroke-width="2"/>
  </g>
</svg>
