<svg xmlns="http://www.w3.org/2000/svg" width="24.116" height="23.059" viewBox="0 0 24.116 23.059">
  <g id="Group_8477" data-name="Group 8477" transform="translate(-238.865 -129.47)">
    <g id="Group_8470" data-name="Group 8470">
      <g id="Path_18809" data-name="Path 18809" transform="translate(242 142)">
        <path id="Path_18970" data-name="Path 18970" d="M0,0H18s2.833,5.786-1.667,8.286A13.8,13.8,0,0,1,9.167,10,15.035,15.035,0,0,1,1.25,8.286C-3,5.786,0,0,0,0Z" fill="none" stroke="#000" stroke-width="1"/>
        <path id="Path_18971" data-name="Path 18971" d="M.991,1.5A8.8,8.8,0,0,0,.52,3.39c-.283,2.276.715,3.146,1.491,3.6A13.043,13.043,0,0,0,8.656,8.506c.157,0,.318,0,.48-.005A12.325,12.325,0,0,0,15.6,6.974,3.224,3.224,0,0,0,17.092,5.4a4.32,4.32,0,0,0,.272-2,8.138,8.138,0,0,0-.388-1.9H.991M0,0H18s2.833,5.786-1.667,8.286A13.8,13.8,0,0,1,9.167,10,15.035,15.035,0,0,1,1.25,8.286C-3,5.786,0,0,0,0Z" stroke="#000" stroke-width="1"/>
      </g>
      <path id="Path_18810" data-name="Path 18810" d="M1.764,1.938S4.125,1,4,7" transform="translate(246.923 136)" fill="none" stroke="#000" stroke-width="2"/>
      <path id="Path_18811" data-name="Path 18811" d="M4,2S.955,1,1.08,7" transform="translate(249.85 136)" fill="none" stroke="#000" stroke-width="2"/>
      <g id="Path_18812" data-name="Path 18812" transform="matrix(0.643, -0.766, 0.766, 0.643, 241.182, 136.946)">
        <path id="Path_18972" data-name="Path 18972" d="M2.336-1.872S7.073,1.82,7.073,3.773A3.536,3.536,0,0,1,0,3.773C0,1.82,2.336-1.872,2.336-1.872Z" fill="none" stroke="#000" stroke-width="1"/>
        <path id="Path_18973" data-name="Path 18973" d="M2.741.433A9.681,9.681,0,0,0,1.5,3.773a2.036,2.036,0,0,0,4.073.014c-.013-.068-.193-.813-1.995-2.573C3.292.935,3.006.671,2.741.433m-.4-2.3S7.073,1.82,7.073,3.773A3.536,3.536,0,1,1,0,3.773C0,1.82,2.336-1.872,2.336-1.872Z" stroke="#000" stroke-width="1"/>
      </g>
      <g id="Path_18813" data-name="Path 18813" transform="translate(259.223 132.422) rotate(81)">
        <path id="Path_18974" data-name="Path 18974" d="M2.336-1.872S7.073,1.82,7.073,3.773A3.536,3.536,0,0,1,0,3.773C0,1.82,2.336-1.872,2.336-1.872Z" fill="none" stroke="#000" stroke-width="1"/>
        <path id="Path_18975" data-name="Path 18975" d="M2.741.433A9.681,9.681,0,0,0,1.5,3.773a2.036,2.036,0,0,0,4.073.014c-.013-.068-.193-.813-1.995-2.573C3.292.935,3.006.671,2.741.433m-.4-2.3S7.073,1.82,7.073,3.773A3.536,3.536,0,1,1,0,3.773C0,1.82,2.336-1.872,2.336-1.872Z" stroke="#000" stroke-width="1"/>
      </g>
    </g>
  </g>
</svg>
