<svg xmlns="http://www.w3.org/2000/svg" width="12" height="17" viewBox="0 0 12 17">
  <g id="Group_277" data-name="Group 277" transform="translate(-204 -79)">
    <g id="Union_2" data-name="Union 2" transform="translate(192 51)">
      <path id="Path_18916" data-name="Path 18916" d="M12.4,35.194h.05A4.606,4.606,0,0,1,12,33.209C12,30.333,14.687,28,18,28s6,2.333,6,5.209a4.7,4.7,0,0,1-.919,2.772L18.2,45Z" fill="none"/>
      <path id="Path_18917" data-name="Path 18917" d="M18,30a4.451,4.451,0,0,0-2.932,1.036A2.888,2.888,0,0,0,14,33.209a2.608,2.608,0,0,0,.257,1.126l.166.351,3.7,6.255,3.263-6.027.077-.106a2.681,2.681,0,0,0,.538-1.6,2.888,2.888,0,0,0-1.068-2.173A4.45,4.45,0,0,0,18,30m0-2c3.313,0,6,2.333,6,5.209a4.7,4.7,0,0,1-.919,2.772L18.2,45l-5.8-9.806h.05A4.606,4.606,0,0,1,12,33.209C12,30.333,14.687,28,18,28Z"/>
    </g>
  </g>
</svg>
