<svg xmlns="http://www.w3.org/2000/svg" width="17.01" height="15.25" viewBox="0 0 17.01 15.25">
  <g id="Group_8473" data-name="Group 8473" transform="translate(-112.24 -136.75)">
    <g id="Group_8471" data-name="Group 8471">
      <g id="Rectangle_4241" data-name="Rectangle 4241" transform="translate(116.5 137)">
        <path id="Path_18966" data-name="Path 18966" d="M3,0h9.5V6H0V3A3,3,0,0,1,3,0Z" fill="none"/>
        <path id="Path_18967" data-name="Path 18967" d="M3,.75h8a.75.75,0,0,1,.75.75v3a.75.75,0,0,1-.75.75H1.5A.75.75,0,0,1,.75,4.5V3A2.25,2.25,0,0,1,3,.75Z" fill="none" stroke="#000" stroke-width="2"/>
      </g>
      <g id="Group_8466" data-name="Group 8466" transform="translate(0 2.698)">
        <g id="Ellipse_34" data-name="Ellipse 34" transform="translate(112.24 143.302)" fill="none" stroke="#000" stroke-width="2">
          <circle cx="3" cy="3" r="3" stroke="none"/>
          <circle cx="3" cy="3" r="2" fill="none"/>
        </g>
        <path id="Path_18802" data-name="Path 18802" d="M-.253.469V8.833" transform="translate(117.501 137.5)" fill="none" stroke="#000" stroke-width="2"/>
      </g>
      <g id="Group_8465" data-name="Group 8465" transform="translate(-2 2.789)">
        <g id="Ellipse_35" data-name="Ellipse 35" transform="translate(125.24 143.211)" fill="none" stroke="#000" stroke-width="2">
          <circle cx="3" cy="3" r="3" stroke="none"/>
          <circle cx="3" cy="3" r="2" fill="none"/>
        </g>
        <path id="Path_18803" data-name="Path 18803" d="M-.25.469V8.438" transform="translate(130.491 137.742)" fill="none" stroke="#000" stroke-width="2"/>
      </g>
    </g>
  </g>
</svg>
