<svg xmlns="http://www.w3.org/2000/svg" width="15.661" height="14.456" viewBox="0 0 15.661 14.456">
  <g id="Path_1087" data-name="Path 1087" fill="none">
    <path d="M7.831,14.456C3.62,11.57,1.412,8.944.506,6.746-1.92.857,5.01-1.96,7.831,1.517c2.821-3.477,9.75-.66,7.324,5.229C14.249,8.944,12.041,11.57,7.831,14.456Z" stroke="none"/>
    <path d="M 7.830507278442383 12.00133609771729 C 11.3606424331665 9.385114669799805 12.75951766967773 7.309430599212646 13.30547714233398 5.98450231552124 C 13.63847732543945 5.176102161407471 13.90633773803711 4.019652366638184 13.29131698608398 3.101152420043945 C 12.84341716766357 2.43223237991333 11.98491764068604 2.000002384185791 11.10418701171875 2.000002384185791 C 10.69701766967773 2.000002384185791 9.93205738067627 2.100932359695435 9.383657455444336 2.776892423629761 L 7.830517292022705 4.691302299499512 L 6.277367115020752 2.776902437210083 C 5.728957176208496 2.100932359695435 4.964007377624512 2.000002384185791 4.55683708190918 2.000002384185791 C 3.676257371902466 2.000002384185791 2.817807197570801 2.432282209396362 2.369857311248779 3.101272344589233 C 1.754777312278748 4.019852161407471 2.022577285766602 5.176202297210693 2.355447292327881 5.984282493591309 C 2.901488780975342 7.309410572052002 4.300371646881104 9.385112762451172 7.830507278442383 12.00133609771729 M 7.830507278442383 14.45632266998291 C 3.620097160339355 11.56987190246582 1.411897301673889 8.943972587585449 0.5062872767448425 6.746262550354004 C -1.919792652130127 0.8566725850105286 5.009835720062256 -1.959918260574341 7.830507278442383 1.516842365264893 C 10.65117835998535 -1.959918856620789 17.58081817626953 0.8566731214523315 15.1547269821167 6.746262550354004 C 14.24911689758301 8.943972587585449 12.04091739654541 11.56987190246582 7.830507278442383 14.45632266998291 Z" stroke="none" fill="#000"/>
  </g>
</svg>
