<svg xmlns="http://www.w3.org/2000/svg" width="10.239" height="16.75" viewBox="0 0 10.239 16.75">
  <g id="Path_1103" data-name="Path 1103" transform="translate(0.25 9.5)">
    <path id="Path_19054" data-name="Path 19054" d="M4.87-9S9.739-.559,9.739,2.13A4.87,4.87,0,1,1,0,2.13C0-.559,4.87-9,4.87-9Z" fill="none"/>
    <path id="Path_19055" data-name="Path 19055" d="M4.87-5.891c-.34.638-.716,1.362-1.092,2.116C1.664.472,1.5,1.819,1.5,2.13a3.37,3.37,0,1,0,6.739,0c0-.311-.164-1.655-2.271-5.893-.377-.758-.756-1.487-1.1-2.129M4.87-9S9.739-.559,9.739,2.13A4.87,4.87,0,1,1,0,2.13C0-.559,4.87-9,4.87-9Z" stroke="#000" stroke-width="0.5"/>
  </g>
</svg>
